<svg data-v-423bf9ae="" xmlns="http://www.w3.org/2000/svg" viewBox="0 0 442 90" class="iconLeft"><!----><!----><!----><g data-v-423bf9ae="" id="3d62d447-d5cd-4bfa-8e8f-083e011a4698" fill="white" transform="matrix(5.917159562968884,0,0,5.917159562968884,63.36654664834674,-3.4615357287862665)"><path d="M3.46 12.08L3.46 12.08Q5.59 12.08 5.59 10.63L5.59 10.63Q5.59 10.18 5.40 9.86Q5.21 9.55 4.89 9.32Q4.56 9.09 4.15 8.92Q3.74 8.75 3.28 8.58L3.28 8.58Q2.74 8.40 2.27 8.17Q1.79 7.94 1.44 7.62Q1.09 7.31 0.89 6.87Q0.69 6.44 0.69 5.82L0.69 5.82Q0.69 4.55 1.55 3.84Q2.42 3.12 3.95 3.12L3.95 3.12Q4.83 3.12 5.55 3.31Q6.27 3.50 6.61 3.72L6.61 3.72L6.17 4.83Q5.88 4.65 5.30 4.47Q4.72 4.30 3.95 4.30L3.95 4.30Q3.56 4.30 3.22 4.38Q2.88 4.47 2.63 4.63Q2.38 4.80 2.23 5.06Q2.09 5.32 2.09 5.67L2.09 5.67Q2.09 6.06 2.24 6.33Q2.39 6.59 2.67 6.80Q2.95 7 3.33 7.17Q3.70 7.34 4.14 7.50L4.14 7.50Q4.77 7.76 5.30 8.01Q5.82 8.26 6.21 8.61Q6.59 8.96 6.80 9.44Q7.01 9.93 7.01 10.61L7.01 10.61Q7.01 11.89 6.08 12.57Q5.15 13.26 3.46 13.26L3.46 13.26Q2.88 13.26 2.40 13.18Q1.92 13.10 1.54 13.00Q1.16 12.89 0.89 12.78Q0.62 12.66 0.46 12.57L0.46 12.57L0.87 11.45Q1.19 11.63 1.85 11.86Q2.51 12.08 3.46 12.08ZM8.16 9.42L8.16 9.42Q8.16 8.46 8.44 7.74Q8.72 7.01 9.18 6.54Q9.65 6.06 10.25 5.82Q10.85 5.59 11.48 5.59L11.48 5.59Q12.95 5.59 13.73 6.50Q14.52 7.42 14.52 9.30L14.52 9.30Q14.52 9.38 14.52 9.51Q14.52 9.65 14.50 9.76L14.50 9.76L9.52 9.76Q9.60 10.89 10.18 11.48Q10.75 12.07 11.97 12.07L11.97 12.07Q12.66 12.07 13.13 11.95Q13.59 11.83 13.83 11.72L13.83 11.72L14.01 12.81Q13.78 12.94 13.18 13.08Q12.59 13.22 11.83 13.22L11.83 13.22Q10.88 13.22 10.19 12.93Q9.49 12.64 9.04 12.14Q8.60 11.63 8.38 10.94Q8.16 10.25 8.16 9.42ZM9.55 8.71L13.16 8.71Q13.17 7.83 12.72 7.26Q12.26 6.69 11.47 6.69L11.47 6.69Q11.02 6.69 10.68 6.87Q10.33 7.04 10.09 7.32Q9.86 7.60 9.72 7.97Q9.59 8.33 9.55 8.71L9.55 8.71ZM19.56 13.22L19.56 13.22Q18.68 13.22 18.01 12.94Q17.35 12.66 16.89 12.15Q16.44 11.65 16.21 10.96Q15.99 10.26 15.99 9.42L15.99 9.42Q15.99 8.58 16.23 7.88Q16.48 7.18 16.93 6.67Q17.37 6.16 18.03 5.87Q18.68 5.59 19.47 5.59L19.47 5.59Q19.96 5.59 20.45 5.67Q20.94 5.75 21.39 5.94L21.39 5.94L21.10 7.04Q20.80 6.90 20.42 6.82Q20.03 6.73 19.60 6.73L19.60 6.73Q18.51 6.73 17.93 7.42Q17.35 8.11 17.35 9.42L17.35 9.42Q17.35 10.01 17.48 10.50Q17.61 10.99 17.90 11.34Q18.19 11.69 18.63 11.88Q19.08 12.07 19.73 12.07L19.73 12.07Q20.24 12.07 20.66 11.97Q21.08 11.87 21.32 11.76L21.32 11.76L21.50 12.85Q21.39 12.92 21.18 12.98Q20.97 13.05 20.71 13.10Q20.44 13.15 20.14 13.18Q19.84 13.22 19.56 13.22ZM28.70 5.77L28.70 12.84Q28.25 12.95 27.52 13.08Q26.78 13.20 25.82 13.20L25.82 13.20Q24.98 13.20 24.40 12.96Q23.83 12.71 23.48 12.26Q23.13 11.82 22.97 11.21Q22.82 10.60 22.82 9.86L22.82 9.86L22.82 5.77L24.12 5.77L24.12 9.58Q24.12 10.91 24.54 11.48Q24.96 12.05 25.96 12.05L25.96 12.05Q26.17 12.05 26.39 12.04Q26.61 12.03 26.81 12.01Q27.01 11.98 27.17 11.96Q27.33 11.94 27.40 11.91L27.40 11.91L27.40 5.77L28.70 5.77ZM33.63 5.61L33.63 5.61Q33.80 5.61 34.01 5.63Q34.23 5.66 34.44 5.69Q34.65 5.73 34.83 5.76Q35 5.80 35.08 5.82L35.08 5.82L34.86 6.96Q34.71 6.90 34.35 6.83Q33.99 6.75 33.43 6.75L33.43 6.75Q33.07 6.75 32.71 6.83Q32.35 6.90 32.24 6.93L32.24 6.93L32.24 13.05L30.94 13.05L30.94 6.08Q31.40 5.91 32.09 5.76Q32.77 5.61 33.63 5.61ZM35.94 9.42L35.94 9.42Q35.94 8.46 36.22 7.74Q36.50 7.01 36.96 6.54Q37.42 6.06 38.02 5.82Q38.63 5.59 39.26 5.59L39.26 5.59Q40.73 5.59 41.51 6.50Q42.29 7.42 42.29 9.30L42.29 9.30Q42.29 9.38 42.29 9.51Q42.29 9.65 42.28 9.76L42.28 9.76L37.30 9.76Q37.38 10.89 37.95 11.48Q38.53 12.07 39.75 12.07L39.75 12.07Q40.43 12.07 40.90 11.95Q41.37 11.83 41.61 11.72L41.61 11.72L41.79 12.81Q41.55 12.94 40.96 13.08Q40.36 13.22 39.61 13.22L39.61 13.22Q38.65 13.22 37.96 12.93Q37.27 12.64 36.82 12.14Q36.37 11.63 36.16 10.94Q35.94 10.25 35.94 9.42ZM37.32 8.71L40.94 8.71Q40.95 7.83 40.50 7.26Q40.04 6.69 39.24 6.69L39.24 6.69Q38.79 6.69 38.45 6.87Q38.11 7.04 37.87 7.32Q37.63 7.60 37.50 7.97Q37.37 8.33 37.32 8.71L37.32 8.71ZM46.83 3.25L46.83 3.25Q48.87 3.25 49.97 4.03Q51.07 4.80 51.07 6.34L51.07 6.34Q51.07 7.18 50.77 7.78Q50.47 8.37 49.90 8.74Q49.34 9.11 48.52 9.28Q47.71 9.45 46.69 9.45L46.69 9.45L45.61 9.45L45.61 13.05L44.25 13.05L44.25 3.49Q44.83 3.35 45.54 3.30Q46.24 3.25 46.83 3.25ZM46.94 4.44L46.94 4.44Q46.07 4.44 45.61 4.48L45.61 4.48L45.61 8.29L46.63 8.29Q47.33 8.29 47.89 8.20Q48.45 8.11 48.84 7.89Q49.22 7.67 49.43 7.29Q49.64 6.92 49.64 6.33L49.64 6.33Q49.64 5.77 49.43 5.40Q49.21 5.04 48.84 4.82Q48.47 4.61 47.98 4.52Q47.49 4.44 46.94 4.44ZM52.77 13.05L52.77 3.35L54.12 3.35L54.12 13.05L52.77 13.05ZM63.88 13.05L62.36 13.05Q62.15 12.63 61.85 12.12Q61.56 11.61 61.21 11.05Q60.86 10.50 60.48 9.95Q60.10 9.39 59.75 8.90L59.75 8.90Q59.40 9.39 59.02 9.95Q58.65 10.50 58.30 11.05Q57.96 11.61 57.66 12.12Q57.36 12.63 57.15 13.05L57.15 13.05L55.65 13.05Q56.28 11.82 57.11 10.54Q57.95 9.27 58.88 7.92L58.88 7.92L55.78 3.35L57.34 3.35L59.74 6.96L62.10 3.35L63.66 3.35L60.61 7.87Q61.56 9.23 62.40 10.51Q63.24 11.80 63.88 13.05L63.88 13.05Z"></path></g><!----><g data-v-423bf9ae="" id="9356bcb7-caee-43a3-872b-df801770088e" transform="matrix(2.8125,0,0,2.8125,-21.194407999515533,0)" stroke="none" fill="white"><path d="M18.396 26.495L7.807 15.905 18.432 5.28l.707.707-9.918 9.918 9.882 9.883z"></path><path d="M23.194 1v4.194H19V1h4.194m1-1H18v6.194h6.194V0zM23.194 26.806V31H19v-4.194h4.194m1-1H18V32h6.194v-6.194z"></path></g><!----></svg>